<svg id="visual" viewBox="0 0 900 600" width="900" height="600" xmlns="http://www.w3.org/2000/svg" xmlns:xlink="http://www.w3.org/1999/xlink" version="1.1"><path d="M0 205L13.7 190C27.3 175 54.7 145 82 139C109.3 133 136.7 151 163.8 155C191 159 218 149 245.2 157C272.3 165 299.7 191 327 207C354.3 223 381.7 229 409 217C436.3 205 463.7 175 491 157C518.3 139 545.7 133 573 139C600.3 145 627.7 163 654.8 163C682 163 709 145 736.2 125C763.3 105 790.7 83 818 74C845.3 65 872.7 69 886.3 71L900 73L900 0L886.3 0C872.7 0 845.3 0 818 0C790.7 0 763.3 0 736.2 0C709 0 682 0 654.8 0C627.7 0 600.3 0 573 0C545.7 0 518.3 0 491 0C463.7 0 436.3 0 409 0C381.7 0 354.3 0 327 0C299.7 0 272.3 0 245.2 0C218 0 191 0 163.8 0C136.7 0 109.3 0 82 0C54.7 0 27.3 0 13.7 0L0 0Z" fill="#ff7bfc"></path><path d="M0 271L13.7 260C27.3 249 54.7 227 82 224C109.3 221 136.7 237 163.8 229C191 221 218 189 245.2 195C272.3 201 299.7 245 327 273C354.3 301 381.7 313 409 298C436.3 283 463.7 241 491 217C518.3 193 545.7 187 573 196C600.3 205 627.7 229 654.8 231C682 233 709 213 736.2 188C763.3 163 790.7 133 818 119C845.3 105 872.7 107 886.3 108L900 109L900 71L886.3 69C872.7 67 845.3 63 818 72C790.7 81 763.3 103 736.2 123C709 143 682 161 654.8 161C627.7 161 600.3 143 573 137C545.7 131 518.3 137 491 155C463.7 173 436.3 203 409 215C381.7 227 354.3 221 327 205C299.7 189 272.3 163 245.2 155C218 147 191 157 163.8 153C136.7 149 109.3 131 82 137C54.7 143 27.3 173 13.7 188L0 203Z" fill="#ff5efa"></path><path d="M0 325L13.7 324C27.3 323 54.7 321 82 328C109.3 335 136.7 351 163.8 346C191 341 218 315 245.2 307C272.3 299 299.7 309 327 322C354.3 335 381.7 351 409 344C436.3 337 463.7 307 491 290C518.3 273 545.7 269 573 274C600.3 279 627.7 293 654.8 311C682 329 709 351 736.2 329C763.3 307 790.7 241 818 227C845.3 213 872.7 251 886.3 270L900 289L900 107L886.3 106C872.7 105 845.3 103 818 117C790.7 131 763.3 161 736.2 186C709 211 682 231 654.8 229C627.7 227 600.3 203 573 194C545.7 185 518.3 191 491 215C463.7 239 436.3 281 409 296C381.7 311 354.3 299 327 271C299.7 243 272.3 199 245.2 193C218 187 191 219 163.8 227C136.7 235 109.3 219 82 222C54.7 225 27.3 247 13.7 258L0 269Z" fill="#ff34f8"></path><path d="M0 415L13.7 405C27.3 395 54.7 375 82 377C109.3 379 136.7 403 163.8 396C191 389 218 351 245.2 343C272.3 335 299.7 357 327 372C354.3 387 381.7 395 409 391C436.3 387 463.7 371 491 366C518.3 361 545.7 367 573 372C600.3 377 627.7 381 654.8 386C682 391 709 397 736.2 378C763.3 359 790.7 315 818 301C845.3 287 872.7 303 886.3 311L900 319L900 287L886.3 268C872.7 249 845.3 211 818 225C790.7 239 763.3 305 736.2 327C709 349 682 327 654.8 309C627.7 291 600.3 277 573 272C545.7 267 518.3 271 491 288C463.7 305 436.3 335 409 342C381.7 349 354.3 333 327 320C299.7 307 272.3 297 245.2 305C218 313 191 339 163.8 344C136.7 349 109.3 333 82 326C54.7 319 27.3 321 13.7 322L0 323Z" fill="#f100e8"></path><path d="M0 517L13.7 504C27.3 491 54.7 465 82 467C109.3 469 136.7 499 163.8 493C191 487 218 445 245.2 435C272.3 425 299.7 447 327 462C354.3 477 381.7 485 409 485C436.3 485 463.7 477 491 473C518.3 469 545.7 469 573 459C600.3 449 627.7 429 654.8 426C682 423 709 437 736.2 432C763.3 427 790.7 403 818 394C845.3 385 872.7 391 886.3 394L900 397L900 317L886.3 309C872.7 301 845.3 285 818 299C790.7 313 763.3 357 736.2 376C709 395 682 389 654.8 384C627.7 379 600.3 375 573 370C545.7 365 518.3 359 491 364C463.7 369 436.3 385 409 389C381.7 393 354.3 385 327 370C299.7 355 272.3 333 245.2 341C218 349 191 387 163.8 394C136.7 401 109.3 377 82 375C54.7 373 27.3 393 13.7 403L0 413Z" fill="#d600ce"></path><path d="M0 601L13.7 601C27.3 601 54.7 601 82 601C109.3 601 136.7 601 163.8 601C191 601 218 601 245.2 601C272.3 601 299.7 601 327 601C354.3 601 381.7 601 409 601C436.3 601 463.7 601 491 601C518.3 601 545.7 601 573 601C600.3 601 627.7 601 654.8 601C682 601 709 601 736.2 601C763.3 601 790.7 601 818 601C845.3 601 872.7 601 886.3 601L900 601L900 395L886.3 392C872.7 389 845.3 383 818 392C790.7 401 763.3 425 736.2 430C709 435 682 421 654.8 424C627.7 427 600.3 447 573 457C545.7 467 518.3 467 491 471C463.7 475 436.3 483 409 483C381.7 483 354.3 475 327 460C299.7 445 272.3 423 245.2 433C218 443 191 485 163.8 491C136.7 497 109.3 467 82 465C54.7 463 27.3 489 13.7 502L0 515Z" fill="#bb00b4"></path></svg>